<?xml version="1.0" encoding="UTF-8"?>
<svg version="1.1" xmlns="http://www.w3.org/2000/svg" width="500" height="500">
<path d="M0 0 C165 0 330 0 500 0 C500 165 500 330 500 500 C335 500 170 500 0 500 C0 335 0 170 0 0 Z " fill="#512BD4" transform="translate(0,0)"/>
<path d="M0 0 C6.6 0 13.2 0 20 0 C20 42.9 20 85.8 20 130 C12.41 130 4.82 130 -3 130 C-11.03618928 120.14693314 -11.03618928 120.14693314 -13.171875 115.62890625 C-15.76884008 110.37855926 -18.74201113 105.52718824 -21.9375 100.625 C-22.92850924 99.05640768 -23.9167527 97.48606487 -24.90234375 95.9140625 C-28.24927086 90.5972789 -31.6240295 85.29837251 -35 80 C-52.40237316 52.6663547 -52.40237316 52.6663547 -60.1875 39.9375 C-60.65760498 39.16889648 -61.12770996 38.40029297 -61.61206055 37.60839844 C-64.86797975 32.2640405 -64.86797975 32.2640405 -66 30 C-66.33 63 -66.66 96 -67 130 C-73.6 130 -80.2 130 -87 130 C-87 87.43 -87 44.86 -87 1 C-62 1 -62 1 -56.69921875 5.328125 C-55.07983398 8.16040039 -55.07983398 8.16040039 -53.6875 11.25 C-53.11652588 12.29470459 -52.54555176 13.33940918 -51.95727539 14.41577148 C-50.79254169 16.55443979 -49.66486257 18.71372824 -48.57617188 20.89208984 C-46.27226738 25.43494985 -43.60430467 29.72680026 -40.9375 34.0625 C-39.96555207 35.69679066 -38.99551303 37.33221801 -38.02734375 38.96875 C-33.11105915 47.20308094 -27.88735138 55.24632263 -22.71386719 63.3203125 C-20.00315395 67.55860146 -17.31236531 71.80938078 -14.625 76.0625 C-14.17382812 76.7747876 -13.72265625 77.4870752 -13.2578125 78.22094727 C-9.11362852 84.77981112 -5.06719438 91.39080912 -1 98 C-0.67 65.66 -0.34 33.32 0 0 Z " fill="#FDFDFE" transform="translate(210,187)"/>
<path d="M0 0 C22.77 0 45.54 0 69 0 C69 6.27 69 12.54 69 19 C53.16 19 37.32 19 21 19 C21 31.21 21 43.42 21 56 C35.52 56 50.04 56 65 56 C65 61.94 65 67.88 65 74 C50.48 74 35.96 74 21 74 C21 86.54 21 99.08 21 112 C37.83 112 54.66 112 72 112 C72 117.94 72 123.88 72 130 C71 131 71 131 68.18431091 131.12025452 C66.29568077 131.1169236 66.29568077 131.1169236 64.36889648 131.11352539 C63.66501077 131.11364593 62.96112505 131.11376646 62.23590946 131.11389065 C59.94760589 131.11314167 57.65938283 131.10551417 55.37109375 131.09765625 C53.96228067 131.09618678 52.55346705 131.0951661 51.14465332 131.09460449 C45.90892724 131.08935216 40.67321284 131.07539107 35.4375 131.0625 C17.8959375 131.0315625 17.8959375 131.0315625 0 131 C0 87.77 0 44.54 0 0 Z " fill="#F9F8FD" transform="translate(258,187)"/>
<path d="M0 0 C31.02 0 62.04 0 94 0 C94 6.27 94 12.54 94 19 C81.79 19 69.58 19 57 19 C57 55.63 57 92.26 57 130 C50.07 130 43.14 130 36 130 C36 93.37 36 56.74 36 19 C24.12 19 12.24 19 0 19 C0 12.73 0 6.46 0 0 Z " fill="#FBFAFE" transform="translate(337,187)"/>
<path d="M0 0 C3.76104042 3.14877802 5.46962733 4.60039267 6.125 9.5625 C5.57101172 14.23182983 4.39489009 16.41453071 1.6875 20.25 C-2.66437589 23.02779312 -7.31750391 23.04447969 -12.3125 22.25 C-15.43427233 20.56712073 -17.70387035 18.4672593 -19.3125 15.25 C-19.83387294 10.42089 -20.04652673 6.50833154 -17.5625 2.25 C-12.16304978 -2.54951131 -6.44937486 -3.40721691 0 0 Z " fill="#FBFAFE" transform="translate(96.3125,296.75)"/>
</svg>
